<svg width="128" height="155" viewBox="0 0 128 155" fill="none" xmlns="http://www.w3.org/2000/svg">
<g filter="url(#filter0_d)">
<path d="M20.1375 72.1722L18.7057 72.2861L17.3527 72.289L15.4002 71.9612L13.5262 71.3012L11.6517 70.4198L10.1073 69.3162L8.89335 68.2119L7.89952 66.9965L7.12601 65.7805L6.46267 64.5643L5.79845 62.9054L5.3539 60.9138L5.23745 57.7039L5.44953 53.4971L6.31889 47.4069L7.19345 43.9735L8.61642 39.3212L9.71261 36.5514L11.7974 32.3404L13.993 28.4613L16.0802 25.4679L18.0583 23.0283L20.8063 19.9228L22.4554 18.2587L24.7649 16.2611L27.0746 14.3742L29.3847 12.7087L32.2452 10.8206L34.6661 9.48698L37.1974 8.26377L40.1692 6.9289L43.2963 5.81507L46.3342 4.92283L49.3073 4.25213L52.7212 3.69115L56.4658 3.24013L60.211 3.1212L63.2957 3.22512L67.0418 3.54896L70.6782 4.09444L73.6538 4.75207L78.3935 6.18068L82.0317 7.61172L85.5601 9.26438L88.8686 11.1389L91.626 12.904L94.9356 15.332L97.6944 17.7612L100.895 20.9643L103.546 24.1686L105.976 27.4841L107.965 30.6899L109.623 33.675L111.393 37.6562L112.723 41.4169L113.721 44.8462L114.499 48.276L115.057 52.1491L115.284 55.6909L115.438 58.79L115.296 61.8898L115.081 64.4362L114.865 66.3185L114.538 68.3117L114.102 70.5266L113.446 73.074L112.68 75.7324L111.803 78.1696L110.926 80.3854L109.829 82.8231L108.513 85.372L107.195 87.4781L106.097 89.2516L104.778 91.1363L103.35 93.0213L102.141 94.463L100.052 96.7922L98.5133 98.3453L97.0838 99.6767L95.5442 101.008L93.6742 102.452L91.9143 103.784L89.934 105.117L88.1736 106.227L86.413 107.227L84.6521 108.117L82.7812 109.007L81.0201 109.785L78.5983 110.676L75.846 111.568L73.8642 112.126L71.6621 112.684L69.1293 113.132L66.5962 113.47L64.2833 113.696L62.4108 113.811L60.7584 113.815L59.4364 113.818L57.5631 113.49L55.5791 112.941L53.8148 112.059L52.2706 111.066L50.8359 109.741L49.6213 108.305L48.737 106.757L48.0734 105.43L47.6298 103.881L47.296 102.222L47.1826 100.561L47.2893 98.79L47.6165 97.1288L48.1641 95.4672L48.8224 94.1374L49.7009 92.6965L50.69 91.4766L51.8996 90.367L52.7795 89.7009L54.2099 88.8122L55.8608 88.0337L58.7236 87.3633L61.2571 87.247L63.1296 87.1322L65.2223 86.9062L66.9839 86.4595L70.2868 85.456L73.4787 84.01L76.3395 82.3092L79.3093 80.0121L81.838 77.4606L83.8162 75.021L85.4634 72.3607L86.7797 69.4797L87.8752 66.3778L88.5303 63.3876L88.9642 59.9551L88.9579 56.745L88.3995 52.8719L87.5115 49.4423L86.1831 46.1244L84.5246 43.0286L82.2052 39.9342L79.7764 37.2829L77.1285 35.1855L74.4811 33.4202L71.2834 31.8775L67.7559 30.6676L64.8904 30.0098L61.9155 29.6842L59.0513 29.6905L56.4079 29.9177L52.9942 30.5894L49.2513 31.926L46.1697 33.3718L43.5293 35.1487L41.1097 37.1465L38.8008 39.4762L37.0426 41.694L35.5049 44.0219L34.2977 46.3492L33.3108 48.6759L32.5453 51.5557L31.8935 56.2063L31.6812 60.3025L31.3537 61.8529L30.9163 63.5143L30.4777 64.5115L29.929 65.6197L29.38 66.5065L28.6108 67.5044L27.9513 68.2807L26.4117 69.6124L25.0915 70.5009L23.551 71.3898L21.8997 71.9469L20.1375 72.1722Z" fill="#FF6666"/>
<path d="M20.1375 72.1722L18.7057 72.2861L17.3527 72.289L15.4002 71.9612L13.5262 71.3012L11.6517 70.4198L10.1073 69.3162L8.89335 68.2119L7.89952 66.9965L7.12601 65.7805L6.46267 64.5643L5.79845 62.9054L5.3539 60.9138L5.23745 57.7039L5.44953 53.4971L6.31889 47.4069L7.19345 43.9735L8.61642 39.3212L9.71261 36.5514L11.7974 32.3404L13.993 28.4613L16.0802 25.4679L18.0583 23.0283L20.8063 19.9228L22.4554 18.2587L24.7649 16.2611L27.0746 14.3742L29.3847 12.7087L32.2452 10.8206L34.6661 9.48698L37.1974 8.26377L40.1692 6.9289L43.2963 5.81507L46.3342 4.92283L49.3073 4.25213L52.7212 3.69115L56.4658 3.24013L60.211 3.1212L63.2957 3.22512L67.0418 3.54896L70.6782 4.09444L73.6538 4.75207L78.3935 6.18068L82.0317 7.61172L85.5601 9.26438L88.8686 11.1389L91.626 12.904L94.9356 15.332L97.6944 17.7612L100.895 20.9643L103.546 24.1686L105.976 27.4841L107.965 30.6899L109.623 33.675L111.393 37.6562L112.723 41.4169L113.721 44.8462L114.499 48.276L115.057 52.1491L115.284 55.6909L115.438 58.79L115.296 61.8898L115.081 64.4362L114.865 66.3185L114.538 68.3117L114.102 70.5266L113.446 73.074L112.68 75.7324L111.803 78.1696L110.926 80.3854L109.829 82.8231L108.513 85.372L107.195 87.4781L106.097 89.2516L104.778 91.1363L103.35 93.0213L102.141 94.463L100.052 96.7922L98.5133 98.3453L97.0838 99.6767L95.5442 101.008L93.6742 102.452L91.9143 103.784L89.934 105.117L88.1736 106.227L86.413 107.227L84.6521 108.117L82.7812 109.007L81.0201 109.785L78.5983 110.676L75.846 111.568L73.8642 112.126L71.6621 112.684L69.1293 113.132L66.5962 113.47L64.2833 113.696L62.4108 113.811L60.7584 113.815L59.4364 113.818L57.5631 113.49L55.5791 112.941L53.8148 112.059L52.2706 111.066L50.8359 109.741L49.6213 108.305L48.737 106.757L48.0734 105.43L47.6298 103.881L47.296 102.222L47.1826 100.561L47.2893 98.79L47.6165 97.1288L48.1641 95.4672L48.8224 94.1374L49.7009 92.6965L50.69 91.4766L51.8996 90.367L52.7795 89.7009L54.2099 88.8122L55.8608 88.0337L58.7236 87.3633L61.2571 87.247L63.1296 87.1322L65.2223 86.9062L66.9839 86.4595L70.2868 85.456L73.4787 84.01L76.3395 82.3092L79.3093 80.0121L81.838 77.4606L83.8162 75.021L85.4634 72.3607L86.7797 69.4797L87.8752 66.3778L88.5303 63.3876L88.9642 59.9551L88.9579 56.745L88.3995 52.8719L87.5115 49.4423L86.1831 46.1244L84.5246 43.0286L82.2052 39.9342L79.7764 37.2829L77.1285 35.1855L74.4811 33.4202L71.2834 31.8775L67.7559 30.6676L64.8904 30.0098L61.9155 29.6842L59.0513 29.6905L56.4079 29.9177L52.9942 30.5894L49.2513 31.926L46.1697 33.3718L43.5293 35.1487L41.1097 37.1465L38.8008 39.4762L37.0426 41.694L35.5049 44.0219L34.2977 46.3492L33.3108 48.6759L32.5453 51.5557L31.8935 56.2063L31.6812 60.3025L31.3537 61.8529L30.9163 63.5143L30.4777 64.5115L29.929 65.6197L29.38 66.5065L28.6108 67.5044L27.9513 68.2807L26.4117 69.6124L25.0915 70.5009L23.551 71.3898L21.8997 71.9469L20.1375 72.1722Z" stroke="#FF6666"/>
</g>
<g filter="url(#filter1_d)">
<rect width="85.7702" height="26.5169" rx="13.2585" transform="matrix(0.702855 -0.711333 0.705806 0.708405 0 100.74)" fill="#5EAAA8"/>
</g>
<g filter="url(#filter2_d)">
<rect width="68.3991" height="26.1642" rx="13.0821" transform="matrix(0.999997 -0.0021987 0.00195945 0.999998 5.35547 117.962)" fill="#5EAAA8"/>
</g>
<defs>
<filter id="filter0_d" x="4.737" y="0.620941" width="123.202" height="123.697" filterUnits="userSpaceOnUse" color-interpolation-filters="sRGB">
<feFlood flood-opacity="0" result="BackgroundImageFix"/>
<feColorMatrix in="SourceAlpha" type="matrix" values="0 0 0 0 0 0 0 0 0 0 0 0 0 0 0 0 0 0 127 0"/>
<feOffset dx="6" dy="4"/>
<feGaussianBlur stdDeviation="3"/>
<feColorMatrix type="matrix" values="0 0 0 0 0 0 0 0 0 0 0 0 0 0 0 0 0 0 0.25 0"/>
<feBlend mode="normal" in2="BackgroundImageFix" result="effect1_dropShadow"/>
<feBlend mode="normal" in="SourceGraphic" in2="effect1_dropShadow" result="shape"/>
</filter>
<filter id="filter1_d" x="5.47028" y="43.242" width="80.0593" height="80.7693" filterUnits="userSpaceOnUse" color-interpolation-filters="sRGB">
<feFlood flood-opacity="0" result="BackgroundImageFix"/>
<feColorMatrix in="SourceAlpha" type="matrix" values="0 0 0 0 0 0 0 0 0 0 0 0 0 0 0 0 0 0 127 0"/>
<feOffset dx="6" dy="4"/>
<feGaussianBlur stdDeviation="3"/>
<feColorMatrix type="matrix" values="0 0 0 0 0 0 0 0 0 0 0 0 0 0 0 0 0 0 0.25 0"/>
<feBlend mode="normal" in2="BackgroundImageFix" result="effect1_dropShadow"/>
<feBlend mode="normal" in="SourceGraphic" in2="effect1_dropShadow" result="shape"/>
</filter>
<filter id="filter2_d" x="5.3811" y="115.84" width="80.399" height="38.2571" filterUnits="userSpaceOnUse" color-interpolation-filters="sRGB">
<feFlood flood-opacity="0" result="BackgroundImageFix"/>
<feColorMatrix in="SourceAlpha" type="matrix" values="0 0 0 0 0 0 0 0 0 0 0 0 0 0 0 0 0 0 127 0"/>
<feOffset dx="6" dy="4"/>
<feGaussianBlur stdDeviation="3"/>
<feColorMatrix type="matrix" values="0 0 0 0 0 0 0 0 0 0 0 0 0 0 0 0 0 0 0.25 0"/>
<feBlend mode="normal" in2="BackgroundImageFix" result="effect1_dropShadow"/>
<feBlend mode="normal" in="SourceGraphic" in2="effect1_dropShadow" result="shape"/>
</filter>
</defs>
</svg>
